<mxfile host="app.diagrams.net" modified="2022-12-01T07:37:10.870Z" agent="5.0 (Windows NT 10.0; Win64; x64) AppleWebKit/537.36 (KHTML, like Gecko) Chrome/106.0.0.0 Safari/537.36" etag="y9Q2mqcj0WpR7bWrqgAy" version="20.6.0" type="github">
  <diagram id="C5RBs43oDa-KdzZeNtuy" name="Page-1">
    <mxGraphModel dx="1886" dy="818" grid="1" gridSize="10" guides="1" tooltips="1" connect="1" arrows="1" fold="1" page="1" pageScale="1" pageWidth="827" pageHeight="1169" math="0" shadow="0">
      <root>
        <mxCell id="WIyWlLk6GJQsqaUBKTNV-0" />
        <mxCell id="WIyWlLk6GJQsqaUBKTNV-1" parent="WIyWlLk6GJQsqaUBKTNV-0" />
        <mxCell id="SOgoIiYRi9TFePeGQ_4A-0" value="用户" style="rounded=0;whiteSpace=wrap;html=1;fillColor=#d5e8d4;strokeColor=#82b366;" vertex="1" parent="WIyWlLk6GJQsqaUBKTNV-1">
          <mxGeometry x="60" y="30" width="120" height="60" as="geometry" />
        </mxCell>
        <mxCell id="SOgoIiYRi9TFePeGQ_4A-1" value="iLOT" style="rounded=0;whiteSpace=wrap;html=1;fillColor=#d5e8d4;strokeColor=#82b366;" vertex="1" parent="WIyWlLk6GJQsqaUBKTNV-1">
          <mxGeometry x="240" y="30" width="120" height="60" as="geometry" />
        </mxCell>
        <mxCell id="SOgoIiYRi9TFePeGQ_4A-2" value="Daraja" style="rounded=0;whiteSpace=wrap;html=1;fillColor=#d5e8d4;strokeColor=#82b366;" vertex="1" parent="WIyWlLk6GJQsqaUBKTNV-1">
          <mxGeometry x="430" y="30" width="120" height="60" as="geometry" />
        </mxCell>
        <mxCell id="SOgoIiYRi9TFePeGQ_4A-3" value="MPESA" style="rounded=0;whiteSpace=wrap;html=1;fillColor=#d5e8d4;strokeColor=#82b366;" vertex="1" parent="WIyWlLk6GJQsqaUBKTNV-1">
          <mxGeometry x="600" y="30" width="120" height="60" as="geometry" />
        </mxCell>
        <mxCell id="SOgoIiYRi9TFePeGQ_4A-4" value="" style="rounded=0;whiteSpace=wrap;html=1;" vertex="1" parent="WIyWlLk6GJQsqaUBKTNV-1">
          <mxGeometry x="100" y="120" width="10" height="440" as="geometry" />
        </mxCell>
        <mxCell id="SOgoIiYRi9TFePeGQ_4A-5" value="" style="rounded=0;whiteSpace=wrap;html=1;" vertex="1" parent="WIyWlLk6GJQsqaUBKTNV-1">
          <mxGeometry x="650" y="120" width="10" height="440" as="geometry" />
        </mxCell>
        <mxCell id="SOgoIiYRi9TFePeGQ_4A-7" value="" style="endArrow=classic;html=1;rounded=0;exitX=1.1;exitY=0.111;exitDx=0;exitDy=0;exitPerimeter=0;entryX=0;entryY=0.25;entryDx=0;entryDy=0;" edge="1" parent="WIyWlLk6GJQsqaUBKTNV-1" source="SOgoIiYRi9TFePeGQ_4A-4" target="SOgoIiYRi9TFePeGQ_4A-8">
          <mxGeometry width="50" height="50" relative="1" as="geometry">
            <mxPoint x="170" y="220" as="sourcePoint" />
            <mxPoint x="220" y="170" as="targetPoint" />
          </mxGeometry>
        </mxCell>
        <mxCell id="SOgoIiYRi9TFePeGQ_4A-8" value="" style="rounded=0;whiteSpace=wrap;html=1;" vertex="1" parent="WIyWlLk6GJQsqaUBKTNV-1">
          <mxGeometry x="290" y="120" width="10" height="190" as="geometry" />
        </mxCell>
        <mxCell id="SOgoIiYRi9TFePeGQ_4A-9" value="" style="rounded=0;whiteSpace=wrap;html=1;" vertex="1" parent="WIyWlLk6GJQsqaUBKTNV-1">
          <mxGeometry x="485" y="120" width="10" height="190" as="geometry" />
        </mxCell>
        <mxCell id="SOgoIiYRi9TFePeGQ_4A-10" value="发起充值" style="text;html=1;align=center;verticalAlign=middle;resizable=0;points=[];autosize=1;strokeColor=none;fillColor=none;" vertex="1" parent="WIyWlLk6GJQsqaUBKTNV-1">
          <mxGeometry x="155" y="145" width="70" height="30" as="geometry" />
        </mxCell>
        <mxCell id="SOgoIiYRi9TFePeGQ_4A-11" value="" style="rounded=0;whiteSpace=wrap;html=1;" vertex="1" parent="WIyWlLk6GJQsqaUBKTNV-1">
          <mxGeometry x="300" y="170" width="10" height="60" as="geometry" />
        </mxCell>
        <mxCell id="SOgoIiYRi9TFePeGQ_4A-12" value="" style="endArrow=classic;html=1;rounded=0;entryX=1;entryY=0.205;entryDx=0;entryDy=0;entryPerimeter=0;dashed=1;" edge="1" parent="WIyWlLk6GJQsqaUBKTNV-1" target="SOgoIiYRi9TFePeGQ_4A-4">
          <mxGeometry width="50" height="50" relative="1" as="geometry">
            <mxPoint x="280" y="210" as="sourcePoint" />
            <mxPoint x="160" y="210" as="targetPoint" />
          </mxGeometry>
        </mxCell>
        <mxCell id="SOgoIiYRi9TFePeGQ_4A-13" value="" style="endArrow=classic;html=1;rounded=0;entryX=0.2;entryY=0.637;entryDx=0;entryDy=0;entryPerimeter=0;" edge="1" parent="WIyWlLk6GJQsqaUBKTNV-1" target="SOgoIiYRi9TFePeGQ_4A-9">
          <mxGeometry width="50" height="50" relative="1" as="geometry">
            <mxPoint x="310" y="240" as="sourcePoint" />
            <mxPoint x="430" y="300" as="targetPoint" />
          </mxGeometry>
        </mxCell>
        <mxCell id="SOgoIiYRi9TFePeGQ_4A-14" value="发起请求" style="text;html=1;align=center;verticalAlign=middle;resizable=0;points=[];autosize=1;strokeColor=none;fillColor=none;" vertex="1" parent="WIyWlLk6GJQsqaUBKTNV-1">
          <mxGeometry x="355" y="215" width="70" height="30" as="geometry" />
        </mxCell>
        <mxCell id="SOgoIiYRi9TFePeGQ_4A-15" value="响应结果" style="text;html=1;align=center;verticalAlign=middle;resizable=0;points=[];autosize=1;strokeColor=none;fillColor=none;" vertex="1" parent="WIyWlLk6GJQsqaUBKTNV-1">
          <mxGeometry x="155" y="185" width="70" height="30" as="geometry" />
        </mxCell>
        <mxCell id="SOgoIiYRi9TFePeGQ_4A-16" value="" style="endArrow=classic;html=1;rounded=0;exitX=0.9;exitY=0.7;exitDx=0;exitDy=0;exitPerimeter=0;entryX=-0.5;entryY=0.3;entryDx=0;entryDy=0;entryPerimeter=0;" edge="1" parent="WIyWlLk6GJQsqaUBKTNV-1" source="SOgoIiYRi9TFePeGQ_4A-9" target="SOgoIiYRi9TFePeGQ_4A-5">
          <mxGeometry width="50" height="50" relative="1" as="geometry">
            <mxPoint x="520" y="260" as="sourcePoint" />
            <mxPoint x="640" y="253" as="targetPoint" />
          </mxGeometry>
        </mxCell>
        <mxCell id="SOgoIiYRi9TFePeGQ_4A-17" value="" style="endArrow=classic;html=1;rounded=0;entryX=1.7;entryY=0.167;entryDx=0;entryDy=0;entryPerimeter=0;startArrow=none;exitX=-0.2;exitY=0.857;exitDx=0;exitDy=0;exitPerimeter=0;" edge="1" parent="WIyWlLk6GJQsqaUBKTNV-1">
          <mxGeometry width="50" height="50" relative="1" as="geometry">
            <mxPoint x="641" y="362.0799999999999" as="sourcePoint" />
            <mxPoint x="120" y="365.02" as="targetPoint" />
          </mxGeometry>
        </mxCell>
        <mxCell id="SOgoIiYRi9TFePeGQ_4A-18" value="发送支付短信" style="text;html=1;align=center;verticalAlign=middle;resizable=0;points=[];autosize=1;strokeColor=none;fillColor=none;" vertex="1" parent="WIyWlLk6GJQsqaUBKTNV-1">
          <mxGeometry x="303" y="340" width="100" height="30" as="geometry" />
        </mxCell>
        <mxCell id="SOgoIiYRi9TFePeGQ_4A-19" value="" style="rounded=0;whiteSpace=wrap;html=1;" vertex="1" parent="WIyWlLk6GJQsqaUBKTNV-1">
          <mxGeometry x="110" y="359" width="10" height="60" as="geometry" />
        </mxCell>
        <mxCell id="SOgoIiYRi9TFePeGQ_4A-21" value="" style="endArrow=classic;html=1;rounded=0;entryX=-0.3;entryY=0.955;entryDx=0;entryDy=0;entryPerimeter=0;" edge="1" parent="WIyWlLk6GJQsqaUBKTNV-1">
          <mxGeometry width="50" height="50" relative="1" as="geometry">
            <mxPoint x="130" y="405" as="sourcePoint" />
            <mxPoint x="647" y="405.20000000000005" as="targetPoint" />
          </mxGeometry>
        </mxCell>
        <mxCell id="SOgoIiYRi9TFePeGQ_4A-22" value="输入Pin码，回复短信确认支付" style="text;html=1;align=center;verticalAlign=middle;resizable=0;points=[];autosize=1;strokeColor=none;fillColor=none;" vertex="1" parent="WIyWlLk6GJQsqaUBKTNV-1">
          <mxGeometry x="263" y="380" width="180" height="30" as="geometry" />
        </mxCell>
        <mxCell id="SOgoIiYRi9TFePeGQ_4A-23" value="" style="endArrow=classic;html=1;rounded=0;" edge="1" parent="WIyWlLk6GJQsqaUBKTNV-1">
          <mxGeometry width="50" height="50" relative="1" as="geometry">
            <mxPoint x="650" y="517" as="sourcePoint" />
            <mxPoint x="500" y="517" as="targetPoint" />
          </mxGeometry>
        </mxCell>
        <mxCell id="SOgoIiYRi9TFePeGQ_4A-24" value="" style="rounded=0;whiteSpace=wrap;html=1;" vertex="1" parent="WIyWlLk6GJQsqaUBKTNV-1">
          <mxGeometry x="485" y="475" width="10" height="85" as="geometry" />
        </mxCell>
        <mxCell id="SOgoIiYRi9TFePeGQ_4A-26" value="扣款后回调" style="text;html=1;align=center;verticalAlign=middle;resizable=0;points=[];autosize=1;strokeColor=none;fillColor=none;" vertex="1" parent="WIyWlLk6GJQsqaUBKTNV-1">
          <mxGeometry x="530" y="490" width="80" height="30" as="geometry" />
        </mxCell>
        <mxCell id="SOgoIiYRi9TFePeGQ_4A-27" value="" style="rounded=0;whiteSpace=wrap;html=1;" vertex="1" parent="WIyWlLk6GJQsqaUBKTNV-1">
          <mxGeometry x="290" y="475" width="10" height="85" as="geometry" />
        </mxCell>
        <mxCell id="SOgoIiYRi9TFePeGQ_4A-28" value="" style="endArrow=classic;html=1;rounded=0;entryX=1;entryY=0.5;entryDx=0;entryDy=0;" edge="1" parent="WIyWlLk6GJQsqaUBKTNV-1" target="SOgoIiYRi9TFePeGQ_4A-27">
          <mxGeometry width="50" height="50" relative="1" as="geometry">
            <mxPoint x="480" y="515" as="sourcePoint" />
            <mxPoint x="330" y="515" as="targetPoint" />
          </mxGeometry>
        </mxCell>
        <mxCell id="SOgoIiYRi9TFePeGQ_4A-29" value="回调通知商户成功" style="text;html=1;align=center;verticalAlign=middle;resizable=0;points=[];autosize=1;strokeColor=none;fillColor=none;" vertex="1" parent="WIyWlLk6GJQsqaUBKTNV-1">
          <mxGeometry x="320" y="490" width="120" height="30" as="geometry" />
        </mxCell>
        <mxCell id="SOgoIiYRi9TFePeGQ_4A-30" value="发起短信请求" style="text;html=1;align=center;verticalAlign=middle;resizable=0;points=[];autosize=1;strokeColor=none;fillColor=none;" vertex="1" parent="WIyWlLk6GJQsqaUBKTNV-1">
          <mxGeometry x="500" y="225" width="100" height="30" as="geometry" />
        </mxCell>
        <mxCell id="SOgoIiYRi9TFePeGQ_4A-32" value="" style="endArrow=classic;html=1;rounded=0;entryX=0.8;entryY=0.73;entryDx=0;entryDy=0;entryPerimeter=0;dashed=1;" edge="1" parent="WIyWlLk6GJQsqaUBKTNV-1">
          <mxGeometry width="50" height="50" relative="1" as="geometry">
            <mxPoint x="642" y="444" as="sourcePoint" />
            <mxPoint x="110" y="445.20000000000005" as="targetPoint" />
          </mxGeometry>
        </mxCell>
        <mxCell id="SOgoIiYRi9TFePeGQ_4A-33" value="成功扣款后短信通知" style="text;html=1;align=center;verticalAlign=middle;resizable=0;points=[];autosize=1;strokeColor=none;fillColor=none;" vertex="1" parent="WIyWlLk6GJQsqaUBKTNV-1">
          <mxGeometry x="297" y="420" width="130" height="30" as="geometry" />
        </mxCell>
      </root>
    </mxGraphModel>
  </diagram>
</mxfile>
